<?xml version="1.0" encoding="UTF-8"?>
<!DOCTYPE svg PUBLIC "-//W3C//DTD SVG 1.1//EN" "http://www.w3.org/Graphics/SVG/1.1/DTD/svg11.dtd">
<svg xmlns="http://www.w3.org/2000/svg" xml:space="preserve" width="188.629mm" height="79.4698mm" version="1.1" style="shape-rendering:geometricPrecision; text-rendering:geometricPrecision; image-rendering:optimizeQuality; fill-rule:evenodd; clip-rule:evenodd"
viewBox="0 0 23722.24 9994.23"
 xmlns:xlink="http://www.w3.org/1999/xlink"
 xmlns:xodm="http://www.corel.com/coreldraw/odm/2003">
 <defs>
  <style type="text/css">
   <![CDATA[
    .fil0 {fill:#FEFEFE}
    .fil1 {fill:#FAC237}
    .fil2 {fill:black;fill-rule:nonzero}
   ]]>
  </style>
 </defs>
 <g id="Capa_x0020_1">
  <g id="_1943646661872">
   <rect class="fil0" y="8054.55" width="23722.25" height="1939.68"/>
   <g>
    <rect class="fil1" x="0.02" width="23722.23" height="8054.54"/>
    <path class="fil2" d="M2208.22 2012.32l642.38 0c236.67,0 416.99,88.18 540.95,264.56 123.96,176.37 185.95,429.68 185.95,759.9l0 303.97c0,337.73 -61.99,591.97 -185.95,762.72 -123.96,170.75 -304.28,256.11 -540.95,256.11l-129.6 0 0 1587.36 -512.78 0 0 -3934.62zm512.78 647.33l0 1058.23 112.69 0c154.02,0 231.04,-138.84 231.04,-416.53l0 -225.16c0,-277.69 -77.02,-416.53 -231.04,-416.53l-112.69 0z"/>
    <path id="_1" class="fil2" d="M4783.35 5946.94l-326.83 -1615.51 -78.89 0 0 1615.51 -518.4 0 0 -3934.62 642.38 0c236.66,0 416.99,88.18 540.95,264.56 123.96,176.37 185.94,429.68 185.94,759.9l0 270.19c0,401.53 -93.91,690.48 -281.73,866.86l377.52 1773.11 -540.94 0zm-405.72 -3287.29l0 1024.46 107.06 0c154.03,0 231.05,-136.98 231.05,-410.91l0 -197.02c0,-277.69 -77.02,-416.53 -231.05,-416.53l-107.06 0z"/>
    <path id="_2" class="fil2" d="M6400.54 1956.03c217.88,0 390.69,91 518.41,273 127.72,182 191.58,432.49 191.58,751.46l0 1998.27c0,322.73 -62.93,574.15 -188.77,754.28 -125.85,180.12 -299.59,270.19 -521.23,270.19 -217.88,0 -390.68,-90.07 -518.4,-270.19 -127.72,-180.13 -191.58,-431.55 -191.58,-754.28l0 -1998.27c0,-318.97 63.86,-569.46 191.58,-751.46 127.72,-182 300.52,-273 518.4,-273zm-191.58 3017.1c0,255.18 63.87,382.77 191.58,382.77 131.48,0 197.23,-127.58 197.23,-382.77l0 -1987c0,-255.18 -65.75,-382.77 -197.23,-382.77 -127.71,0 -191.58,127.58 -191.58,382.77l0 1987z"/>
    <path id="_3" class="fil2" d="M7651.49 2012.32l636.73 0c236.67,0 416.99,88.18 540.95,264.56 123.96,176.37 185.94,429.68 185.94,759.9l0 1885.69c0,333.98 -61.98,588.22 -185.94,762.72 -123.96,174.49 -304.28,261.75 -540.95,261.75l-636.73 0 0 -3934.62zm512.75 647.33l0 2639.96 107.06 0c154.03,0 231.05,-138.84 231.05,-416.53l0 -1806.89c0,-277.69 -77.02,-416.53 -231.05,-416.53l-107.06 0z"/>
    <polygon id="_4" class="fil2" points="10051.92,5946.94 9539.15,5946.94 9539.15,2012.32 10051.92,2012.32 "/>
    <polygon id="_5" class="fil2" points="11207.05,5288.35 11888.88,5288.35 11888.88,5946.94 10694.3,5946.94 10694.3,2012.32 11207.05,2012.32 "/>
    <path id="_6" class="fil2" d="M13720.2 1956.03c221.64,0 392.56,84.44 512.78,253.31 120.2,168.86 180.32,409.03 180.32,720.5l0 320.84 -495.86 28.15 0 -287.08c0,-258.93 -61.99,-388.39 -185.96,-388.39 -120.2,0 -180.3,110.7 -180.3,332.1l0 2088.34c0,221.4 58.23,332.1 174.68,332.1 120.2,0 180.32,-129.46 180.32,-388.39l0 -602.3 -231.04 0 0 -641.7 738.17 0 0 1305.91c0,311.47 -60.11,551.64 -180.32,720.5 -120.22,168.87 -291.14,253.31 -512.78,253.31 -217.87,0 -386.92,-84.44 -507.13,-253.31 -120.2,-168.86 -180.3,-409.03 -180.3,-720.5l0 -2099.59c0,-307.71 60.1,-546.95 180.3,-717.7 120.22,-170.73 289.26,-256.11 507.13,-256.11z"/>
    <path id="_7" class="fil2" d="M15861.45 5946.94l-326.83 -1615.51 -78.89 0 0 1615.51 -518.4 0 0 -3934.62 642.36 0c236.67,0 416.99,88.18 540.96,264.56 123.96,176.37 185.94,429.68 185.94,759.9l0 270.19c0,401.53 -93.92,690.48 -281.73,866.86l377.52 1773.11 -540.94 0zm-405.72 -3287.29l0 1024.46 107.06 0c154.03,0 231.04,-136.98 231.04,-410.91l0 -197.02c0,-277.69 -77,-416.53 -231.04,-416.53l-107.06 0z"/>
    <path id="_8" class="fil2" d="M17478.64 1956.03c217.88,0 390.69,91 518.4,273 127.74,182 191.58,432.49 191.58,751.46l0 1998.27c0,322.73 -62.92,574.15 -188.77,754.28 -125.84,180.12 -299.59,270.19 -521.22,270.19 -217.88,0 -390.69,-90.07 -518.4,-270.19 -127.72,-180.13 -191.58,-431.55 -191.58,-754.28l0 -1998.27c0,-318.97 63.86,-569.46 191.58,-751.46 127.71,-182 300.52,-273 518.4,-273zm-191.58 3017.1c0,255.18 63.86,382.77 191.58,382.77 131.48,0 197.22,-127.58 197.22,-382.77l0 -1987c0,-255.18 -65.74,-382.77 -197.22,-382.77 -127.72,0 -191.58,127.58 -191.58,382.77l0 1987z"/>
    <path id="_9" class="fil2" d="M20087.59 2012.32l0 3022.74c0,311.46 -60.11,550.7 -180.32,717.68 -120.22,167 -287.38,250.49 -501.51,250.49 -214.12,0 -381.28,-83.49 -501.5,-250.49 -120.22,-166.99 -180.32,-406.22 -180.32,-717.68l0 -3022.74 501.51 0 0 3005.85c0,217.66 58.23,326.48 174.67,326.48 116.46,0 174.68,-108.82 174.68,-326.48l0 -3005.85 512.78 0z"/>
    <path id="_10" class="fil2" d="M20696.14 2012.32l642.38 0c236.67,0 416.99,88.18 540.95,264.56 123.98,176.37 185.95,429.68 185.95,759.9l0 303.97c0,337.73 -61.98,591.97 -185.95,762.72 -123.96,170.75 -304.28,256.11 -540.95,256.11l-129.6 0 0 1587.36 -512.78 0 0 -3934.62zm512.78 647.33l0 1058.23 112.69 0c154.03,0 231.04,-138.84 231.04,-416.53l0 -225.16c0,-277.69 -77,-416.53 -231.04,-416.53l-112.69 0z"/>
    <polygon class="fil2" points="727.03,9685.81 509.04,9685.81 509.04,8427.01 727.03,8427.01 "/>
    <polygon id="_1_0" class="fil2" points="1608.56,9685.81 1400.15,9685.81 1215.71,9041.1 1215.71,9685.81 1009.7,9685.81 1009.7,8443.22 1239.67,8443.22 1402.55,9012.29 1402.55,8443.22 1608.56,8443.22 "/>
    <path id="_2_1" class="fil2" d="M2159.51 8425.21c92.64,0 164.5,27.01 215.61,81.04 51.11,54.03 76.65,129.66 76.65,226.91l0 100.85 -210.8 9 0 -90.65c0,-83.73 -25.54,-125.46 -76.65,-125.46 -51.11,0 -76.66,35.41 -76.66,106.56l0 660.31c0,69.94 24.76,104.76 74.27,104.76 49.5,0 74.26,-40.82 74.26,-122.47l0 -189.09 -95.83 0 0 -203.49 311.41 0 0 412.4c0,97.25 -25.54,172.88 -76.65,226.91 -51.11,54.03 -122.97,81.04 -215.61,81.04 -91.01,0 -161.68,-27.01 -212,-81.04 -50.3,-54.03 -75.44,-129.66 -75.44,-226.91l0 -662.71c0,-97.25 25.14,-172.88 75.44,-226.91 50.32,-54.03 120.98,-81.04 212,-81.04z"/>
    <polygon id="_3_2" class="fil2" points="3215.92,8646.71 2906.9,8646.71 2906.9,8956.46 3156.03,8956.46 3156.03,9158.16 2906.9,9158.16 2906.9,9484.12 3215.92,9484.12 3215.92,9685.81 2691.32,9685.81 2691.32,8445.02 3215.92,8445.02 "/>
    <polygon id="_4_3" class="fil2" points="4044.76,9685.81 3836.35,9685.81 3651.91,9041.1 3651.91,9685.81 3445.89,9685.81 3445.89,8443.22 3675.87,8443.22 3838.75,9012.29 3838.75,8443.22 4044.76,8443.22 "/>
    <polygon id="_5_4" class="fil2" points="4545.41,9685.81 4329.81,9685.81 4329.81,8443.22 4545.41,8443.22 "/>
    <polygon id="_6_5" class="fil2" points="5364.68,8646.71 5055.65,8646.71 5055.65,8956.46 5304.79,8956.46 5304.79,9158.16 5055.65,9158.16 5055.65,9484.12 5364.68,9484.12 5364.68,9685.81 4840.07,9685.81 4840.07,8445.02 5364.68,8445.02 "/>
    <path id="_7_6" class="fil2" d="M5982.71 9685.81l-138.94 -509.65 -33.53 0 0 509.65 -215.59 0 0 -1242.6 268.29 0c100.61,0 176.87,27.62 228.77,82.84 51.9,55.23 77.85,135.07 77.85,239.51l0 86.45c0,124.86 -39.93,216.1 -119.78,273.73l158.11 560.07 -225.18 0zm-172.47 -1039.1l0 325.96 45.5 0c63.89,0 95.83,-43.82 95.83,-131.46l0 -63.03c0,-87.64 -31.94,-131.47 -95.83,-131.47l-45.5 0z"/>
    <polygon id="_8_7" class="fil2" points="6619.9,9685.81 6404.31,9685.81 6404.31,8443.22 6619.9,8443.22 "/>
    <path id="_9_8" class="fil2" d="M7458.33 9685.81l-217.99 0 -38.32 -275.53 -146.13 0 -35.93 275.53 -215.58 0 198.82 -1242.6 258.72 0 196.43 1242.6zm-306.62 -965.27l-21.57 153.08 -21.54 -153.08 23.96 16.21 19.15 -16.21zm-21.57 153.08l-45.5 336.76 91.01 0 -45.51 -336.76z"/>
    <polygon id="_10_9" class="fil2" points="8229.67,9685.81 8011.69,9685.81 8011.69,8427.01 8229.67,8427.01 "/>
    <polygon id="_11" class="fil2" points="9111.21,9685.81 8902.8,9685.81 8718.36,9041.1 8718.36,9685.81 8512.34,9685.81 8512.34,8443.22 8742.3,8443.22 8905.19,9012.29 8905.19,8443.22 9111.21,8443.22 "/>
    <polygon id="_12" class="fil2" points="9853.81,8650.32 9674.14,8650.32 9674.14,9685.81 9456.15,9685.81 9456.15,8650.32 9276.5,8650.32 9276.5,8443.22 9853.81,8443.22 "/>
    <polygon id="_13" class="fil2" points="10529.33,8646.71 10220.31,8646.71 10220.31,8956.46 10469.45,8956.46 10469.45,9158.16 10220.31,9158.16 10220.31,9484.12 10529.33,9484.12 10529.33,9685.81 10004.73,9685.81 10004.73,8445.02 10529.33,8445.02 "/>
    <path id="_14" class="fil2" d="M11020.41 8425.21c92.62,0 164.5,27.01 215.59,81.04 51.11,54.03 76.65,129.66 76.65,226.91l0 100.85 -210.79 9 0 -90.65c0,-83.73 -25.55,-125.46 -76.65,-125.46 -51.11,0 -76.68,35.41 -76.68,106.56l0 660.31c0,69.94 24.76,104.76 74.27,104.76 49.5,0 74.26,-40.82 74.26,-122.47l0 -189.09 -95.82 0 0 -203.49 311.4 0 0 412.4c0,97.25 -25.54,172.88 -76.65,226.91 -51.1,54.03 -122.97,81.04 -215.59,81.04 -91.03,0 -161.68,-27.01 -212.01,-81.04 -50.29,-54.03 -75.44,-129.66 -75.44,-226.91l0 -662.71c0,-97.25 25.15,-172.88 75.44,-226.91 50.33,-54.03 120.98,-81.04 212.01,-81.04z"/>
    <path id="_15" class="fil2" d="M11942.67 9685.81l-138.94 -509.65 -33.53 0 0 509.65 -215.59 0 0 -1242.6 268.29 0c100.61,0 176.87,27.62 228.76,82.84 51.91,55.23 77.86,135.07 77.86,239.51l0 86.45c0,124.86 -39.93,216.1 -119.78,273.73l158.09 560.07 -225.16 0zm-172.47 -1039.1l0 325.96 45.5 0c63.89,0 95.82,-43.82 95.82,-131.46l0 -63.03c0,-87.64 -31.93,-131.47 -95.82,-131.47l-45.5 0z"/>
    <path id="_16" class="fil2" d="M12910.44 9685.81l-217.99 0 -38.32 -275.53 -146.13 0 -35.93 275.53 -215.58 0 198.82 -1242.6 258.72 0 196.43 1242.6zm-306.62 -965.27l-21.57 153.08 -21.54 -153.08 23.96 16.21 19.15 -16.21zm-21.57 153.08l-45.5 336.76 91.03 0 -45.53 -336.76z"/>
    <polygon id="_17" class="fil2" points="13288.92,9478.71 13573.99,9478.71 13573.99,9685.81 13073.34,9685.81 13073.34,8443.22 13288.92,8443.22 "/>
    <path id="_18" class="fil2" d="M14822.02 9765.06l-260.72 0 -24.36 -41.43c-47.89,40.82 -110.19,60.03 -186.83,57.62 -95.83,0 -170.88,-27.3 -225.18,-81.93 -54.3,-54.63 -81.44,-132.36 -81.44,-233.21l0 -45.02c0,-111.65 40.71,-218.51 122.16,-320.55 -19.17,-34.81 -35.13,-66.04 -47.92,-93.64 -12.78,-27.62 -22.75,-53.73 -29.94,-78.34 -7.19,-24.61 -12.37,-48.33 -15.57,-71.14 -3.19,-22.8 -4.79,-46.22 -4.79,-70.23l0 -10.8c0,-192.1 87.83,-288.14 263.51,-288.14 86.25,0 152.12,24.91 197.62,74.74 45.51,49.81 68.26,119.75 68.26,209.8l0 7.21c0,30.02 -2.39,57.62 -7.17,82.84 -4.8,25.22 -13.58,50.42 -26.35,75.63 -12.79,25.22 -30.35,51.93 -52.72,80.15 -22.35,28.21 -50.3,60.33 -83.85,96.35 8,13.2 14.39,24.01 19.18,32.41 4.78,8.4 9.18,16.21 13.18,23.42 3.99,7.19 8.78,15 14.37,23.4 5.58,8.4 13.15,20.41 22.75,36.02l0 -118.86 198.82 9 0 219.71c3.19,62.43 -5.58,122.47 -26.75,180.09l153.72 244.92zm-543.78 -976.07c0,36.02 15.57,85.84 46.32,149.47 26.75,-34.81 44.32,-62.73 51.9,-83.73 7.99,-21.01 11.97,-44.13 11.97,-69.33l0 -9c0,-54.03 -19.15,-81.04 -57.49,-81.04 -35.14,0 -52.71,28.21 -52.71,84.64l0 9zm79.85 786.98c30.35,0 55.11,-9.61 74.27,-28.81l-146.12 -246.72c-16.37,37.21 -24.76,76.84 -24.76,118.86l0 28.81c0,85.24 32.33,127.86 96.61,127.86z"/>
    <path id="_19" class="fil2" d="M15569.41 8409c87.83,0 156.51,25.82 206.01,77.44 49.51,51.63 74.25,125.46 74.25,221.5l0 50.43 -213.18 19.81 0 -57.64c0,-69.63 -21.57,-104.44 -64.68,-104.44 -41.54,0 -62.29,27.62 -62.29,82.84l0 25.22c0,16.8 2,32.71 5.99,47.73 4,15 11.19,31.21 21.56,48.62 10.39,17.41 24.76,36.62 43.14,57.62 18.36,21.01 41.11,44.72 68.26,71.13 38.32,38.42 71.07,74.14 98.22,107.16 27.14,33.01 48.71,65.42 64.67,97.24 15.97,31.82 27.55,63.64 34.75,95.45 7.17,31.82 10.77,65.72 10.77,101.74l0 59.43c0,93.64 -25.54,165.98 -76.64,217 -51.11,51.02 -120.58,76.54 -208.41,76.54 -91.04,0 -162.5,-26.41 -214.41,-79.24 -51.89,-52.82 -77.83,-126.05 -77.83,-219.71l0 -95.44 213.19 -21.62 0 104.46c0,69.63 24.75,104.44 74.25,104.44 47.92,0 71.87,-33.01 71.87,-99.05l0 -39.61c0,-37.21 -9.99,-72.04 -29.94,-104.44 -19.96,-32.42 -56.29,-74.44 -108.98,-126.06 -38.34,-38.42 -71.47,-74.44 -99.43,-108.05 -27.94,-33.62 -49.11,-65.43 -63.48,-95.44 -31.93,-58.83 -47.9,-123.06 -47.9,-192.69l0 -28.82c0,-93.64 24.75,-165.98 74.25,-217 49.52,-51.02 118.19,-76.54 206.02,-76.54z"/>
    <path id="_20" class="fil2" d="M16625.82 8443.22l0 954.45c0,98.46 -25.57,174.09 -76.65,226.91 -51.11,52.83 -121.38,79.24 -210.81,79.24 -89.43,0 -159.29,-26.41 -209.59,-79.24 -50.32,-52.82 -75.47,-128.45 -75.47,-226.91l0 -954.45 208.41 0 0 949.06c0,68.43 24.76,102.65 74.26,102.65 47.9,0 71.86,-34.22 71.86,-102.65l0 -949.06 217.99 0z"/>
    <path id="_21" class="fil2" d="M17667.85 9685.81l-215.59 0 -4.79 -628.51c-17.56,75.65 -34.35,151.88 -50.3,228.71 -15.97,76.84 -31.93,152.47 -47.9,226.91l-141.34 0 -100.61 -470.02 0 642.9 -208.4 0 0 -1242.6 268.29 0 117.39 554.67 110.19 -554.67 273.08 0 0 1242.6z"/>
    <polygon id="_22" class="fil2" points="18170.9,9685.81 17955.31,9685.81 17955.31,8443.22 18170.9,8443.22 "/>
    <polygon id="_23" class="fil2" points="19066.81,9685.81 18858.41,9685.81 18673.96,9041.1 18673.96,9685.81 18467.95,9685.81 18467.95,8443.22 18697.91,8443.22 18860.8,9012.29 18860.8,8443.22 19066.81,8443.22 "/>
    <polygon id="_24" class="fil2" points="19567.47,9685.81 19351.87,9685.81 19351.87,8443.22 19567.47,8443.22 "/>
    <path id="_25" class="fil2" d="M20087.29 8425.21c86.23,0 153.72,25.22 202.41,75.93 48.72,50.43 73.08,122.47 73.08,215.81l0 50.43 -208.41 21.61 0 -57.62c0,-69.63 -21.56,-104.46 -64.69,-104.46 -41.51,0 -62.28,27.62 -62.28,82.84l0 25.52c0,15.61 2.01,30.91 5.99,45.92 4,15.02 11.18,31.21 21.57,48.63 10.39,17.41 24.76,36.32 43.12,56.72 18.35,20.71 41.12,44.13 68.28,70.54 38.32,38.42 70.65,73.83 97,106.26 26.35,32.71 47.51,64.53 63.48,95.74 15.98,31.21 27.55,62.73 34.74,94.55 7.19,32.11 10.79,66.02 10.79,102.04l0 57.64c0,93.94 -25.57,165.68 -76.66,215.79 -51.11,49.83 -119.79,74.74 -206.02,74.74 -89.43,0 -159.69,-25.82 -210.79,-77.44 -51.11,-51.61 -76.65,-124.25 -76.65,-217.89l0 -93.65 208.4 -21.61 0 102.65c0,68.44 24.76,102.66 74.26,102.66 47.92,0 71.86,-32.42 71.86,-97.25l0 -39.61c0,-36.02 -9.99,-70.24 -29.94,-102.66 -19.96,-32.41 -56.29,-73.83 -109,-124.25 -38.33,-38.42 -71.07,-74.14 -98.22,-107.16 -27.14,-33.01 -47.9,-64.53 -62.28,-94.53 -30.35,-57.64 -45.5,-120.67 -45.5,-189.09l0 -30.61c0,-92.45 24.33,-163.58 73.05,-213.4 48.71,-49.83 116.18,-74.74 202.41,-74.74z"/>
    <polygon id="_26" class="fil2" points="21043.1,8650.32 20863.42,8650.32 20863.42,9685.81 20645.44,9685.81 20645.44,8650.32 20465.79,8650.32 20465.79,8443.22 21043.1,8443.22 "/>
    <path id="_27" class="fil2" d="M21584.48 9685.81l-138.94 -509.65 -33.53 0 0 509.65 -215.59 0 0 -1242.6 268.29 0c100.61,0 176.87,27.62 228.76,82.84 51.91,55.23 77.86,135.07 77.86,239.51l0 86.45c0,124.86 -39.93,216.1 -119.78,273.73l158.11 560.07 -225.18 0zm-172.47 -1039.1l0 325.96 45.5 0c63.89,0 95.82,-43.82 95.82,-131.46l0 -63.03c0,-87.64 -31.93,-131.47 -95.82,-131.47l-45.5 0z"/>
    <path id="_28" class="fil2" d="M22279.17 8425.21c91.01,0 163.29,28.81 216.79,86.45 53.5,57.62 80.25,136.87 80.25,237.71l0 630.3c0,102.04 -26.36,181.59 -79.05,238.61 -52.71,57.03 -125.36,85.54 -217.98,85.54 -91.04,0 -163.29,-28.51 -216.79,-85.54 -53.5,-57.02 -80.26,-136.56 -80.26,-238.61l0 -630.3c0,-100.85 26.76,-180.09 80.26,-237.71 53.5,-57.64 125.75,-86.45 216.79,-86.45zm-81.46 952.35c0,80.74 27.15,120.97 81.46,120.97 54.3,0 81.44,-40.23 81.44,-120.97l0 -627.9c0,-81.93 -27.14,-122.76 -81.44,-122.76 -54.3,0 -81.46,40.82 -81.46,122.76l0 627.9z"/>
    <path id="_29" class="fil2" d="M23055.31 8425.21c86.23,0 153.72,25.22 202.41,75.93 48.72,50.43 73.07,122.47 73.07,215.81l0 50.43 -208.4 21.61 0 -57.62c0,-69.63 -21.57,-104.46 -64.69,-104.46 -41.51,0 -62.28,27.62 -62.28,82.84l0 25.52c0,15.61 2.01,30.91 5.99,45.92 4,15.02 11.18,31.21 21.57,48.63 10.39,17.41 24.75,36.32 43.12,56.72 18.35,20.71 41.12,44.13 68.26,70.54 38.33,38.42 70.67,73.83 97.01,106.26 26.35,32.71 47.51,64.53 63.48,95.74 15.98,31.21 27.55,62.73 34.74,94.55 7.19,32.11 10.79,66.02 10.79,102.04l0 57.64c0,93.94 -25.57,165.68 -76.68,215.79 -51.1,49.83 -119.78,74.74 -206.01,74.74 -89.43,0 -159.69,-25.82 -210.79,-77.44 -51.11,-51.61 -76.65,-124.25 -76.65,-217.89l0 -93.65 208.4 -21.61 0 102.65c0,68.44 24.76,102.66 74.26,102.66 47.9,0 71.86,-32.42 71.86,-97.25l0 -39.61c0,-36.02 -9.99,-70.24 -29.94,-102.66 -19.96,-32.41 -56.29,-73.83 -109,-124.25 -38.33,-38.42 -71.07,-74.14 -98.22,-107.16 -27.15,-33.01 -47.9,-64.53 -62.28,-94.53 -30.35,-57.64 -45.5,-120.67 -45.5,-189.09l0 -30.61c0,-92.45 24.33,-163.58 73.05,-213.4 48.71,-49.83 116.18,-74.74 202.41,-74.74z"/>
   </g>
  </g>
 </g>
</svg>
